<svg width="1200" height="1400" viewBox="0 0 1200 1400" xmlns="http://www.w3.org/2000/svg">
  <style>
    /* Basic styling for UML elements */
    .class-box {
      fill: #f0f0f0;
      stroke: #333;
      stroke-width: 1.5;
      rx: 8; /* Rounded corners */
      ry: 8;
    }
    .class-name {
      font-family: "Inter", sans-serif;
      font-size: 16px;
      font-weight: bold;
      text-anchor: middle;
      fill: #333;
    }
    .attribute, .method {
      font-family: "Inter", sans-serif;
      font-size: 13px;
      fill: #555;
    }
    .attribute {
      text-anchor: start;
    }
    .method {
      text-anchor: start;
    }
    .divider {
      stroke: #aaa;
      stroke-width: 1;
    }
    .relationship-line {
      stroke: #666;
      stroke-width: 1.5;
      fill: none;
    }
    .cardinality {
      font-family: "Inter", sans-serif;
      font-size: 11px;
      fill: #666;
    }
    .relationship-label {
      font-family: "Inter", sans-serif;
      font-size: 11px;
      fill: #666;
      text-anchor: middle;
    }
    /* Arrowhead for associations/dependencies */
    .arrow {
      fill: #666;
      stroke: #666;
      stroke-width: 1.5;
    }
    /* Aggregation diamond */
    .aggregation-diamond {
      fill: white;
      stroke: #666;
      stroke-width: 1.5;
    }
  </style>

  <!-- Define arrow markers -->
  <defs>
    <!-- Standard arrow for dependency/association -->
    <marker id="arrowhead" markerWidth="10" markerHeight="7" refX="0" refY="3.5" orient="auto">
      <polygon points="0 0, 10 3.5, 0 7" class="arrow" />
    </marker>
    <!-- Open arrow for dependency -->
    <marker id="open-arrowhead" markerWidth="10" markerHeight="7" refX="0" refY="3.5" orient="auto" markerUnits="userSpaceOnUse">
      <path d="M 0 0 L 10 3.5 L 0 7" fill="none" stroke="#666" stroke-width="1.5"/>
    </marker>
    <!-- Aggregation diamond -->
    <marker id="aggregation-diamond" markerWidth="10" markerHeight="10" refX="5" refY="5" orient="auto">
      <polygon points="0 5, 5 0, 10 5, 5 10" class="aggregation-diamond" />
    </marker>
  </defs>

  <!-- Classes -->

  <!-- User Class -->
  <rect x="50" y="50" width="220" height="250" class="class-box" />
  <text x="160" y="75" class="class-name">User</text>
  <line x1="50" y1="95" x2="270" y2="95" class="divider" />
  <text x="60" y="115" class="attribute">- userId: String</text>
  <text x="60" y="135" class="attribute">- username: String</text>
  <text x="60" y="155" class="attribute">- password: String</text>
  <text x="60" y="175" class="attribute">- email: String</text>
  <text x="60" y="195" class="attribute">- role: String</text>
  <line x1="50" y1="205" x2="270" y2="205" class="divider" />
  <text x="60" y="225" class="method">+ register(): void</text>
  <text x="60" y="245" class="method">+ login(username: String, password: String): boolean</text>
  <text x="60" y="265" class="method">+ getUserId(): String</text>
  <text x="60" y="285" class="method">+ getUsername(): String</text>

  <!-- Cart Class -->
  <rect x="350" y="50" width="220" height="200" class="class-box" />
  <text x="460" y="75" class="class-name">Cart</text>
  <line x1="350" y1="95" x2="570" y2="95" class="divider" />
  <text x="360" y="115" class="attribute">- items: Map&lt;Book, Integer&gt;</text>
  <line x1="350" y1="125" x2="570" y2="125" class="divider" />
  <text x="360" y="145" class="method">+ addItem(book: Book, quantity: int): void</text>
  <text x="360" y="165" class="method">+ removeItem(book: Book): void</text>
  <text x="360" y="185" class="method">+ updateItemQuantity(book: Book, newQuantity: int): void</text>
  <text x="360" y="205" class="method">+ calculateTotal(): double</text>
  <text x="360" y="225" class="method">+ getItems(): Map&lt;Book, Integer&gt;</text>
  <text x="360" y="245" class="method">+ clearCart(): void</text>

  <!-- Book Class -->
  <rect x="650" y="50" width="220" height="280" class="class-box" />
  <text x="760" y="75" class="class-name">Book</text>
  <line x1="650" y1="95" x2="870" y2="95" class="divider" />
  <text x="660" y="115" class="attribute">- isbn: String</text>
  <text x="660" y="135" class="attribute">- title: String</text>
  <text x="660" y="155" class="attribute">- author: String</text>
  <text x="660" y="175" class="attribute">- price: double</text>
  <text x="660" y="195" class="attribute">- quantityInStock: int</text>
  <line x1="650" y1="205" x2="870" y2="205" class="divider" />
  <text x="660" y="225" class="method">+ getIsbn(): String</text>
  <text x="660" y="245" class="method">+ getTitle(): String</text>
  <text x="660" y="265" class="method">+ getAuthor(): String</text>
  <text x="660" y="285" class="method">+ getPrice(): double</text>
  <text x="660" y="305" class="method">+ getQuantityInStock(): int</text>
  <text x="660" y="325" class="method">+ updateQuantity(change: int): void</text>

  <!-- Order Class -->
  <rect x="50" y="400" width="220" height="200" class="class-box" />
  <text x="160" y="425" class="class-name">Order</text>
  <line x1="50" y1="445" x2="270" y2="445" class="divider" />
  <text x="60" y="465" class="attribute">- orderId: String</text>
  <text x="60" y="485" class="attribute">- userId: String</text>
  <text x="60" y="505" class="attribute">- orderDate: Date</text>
  <text x="60" y="525" class="attribute">- purchasedItems: Map&lt;Book, Integer&gt;</text>
  <text x="60" y="545" class="attribute">- totalAmount: double</text>
  <line x1="50" y1="555" x2="270" y2="555" class="divider" />
  <text x="60" y="575" class="method">+ getOrderId(): String</text>
  <text x="60" y="595" class="method">+ getOrderDetails(): String</text>

  <!-- InventoryManager Class -->
  <rect x="350" y="400" width="220" height="160" class="class-box" />
  <text x="460" y="425" class="class-name">InventoryManager</text>
  <line x1="350" y1="445" x2="570" y2="445" class="divider" />
  <text x="360" y="465" class="attribute">- books: Map&lt;String, Book&gt;</text>
  <line x1="350" y1="475" x2="570" y2="475" class="divider" />
  <text x="360" y="495" class="method">+ getBook(isbn: String): Book</text>
  <text x="360" y="515" class="method">+ checkStock(book: Book, quantity: int): boolean</text>
  <text x="360" y="535" class="method">+ decreaseStock(book: Book, quantity: int): void throws InsufficientStockException</text>
  <text x="360" y="555" class="method">+ increaseStock(book: Book, quantity: int): void</text>

  <!-- BookstoreGUI Class -->
  <rect x="50" y="700" width="220" height="250" class="class-box" />
  <text x="160" y="725" class="class-name">BookstoreGUI</text>
  <line x1="50" y1="745" x2="270" y2="745" class="divider" />
  <text x="60" y="765" class="attribute">- user: User</text>
  <text x="60" y="785" class="attribute">- cart: Cart</text>
  <text x="60" y="805" class="attribute">- inventoryManager: InventoryManager</text>
  <line x1="50" y1="815" x2="270" y2="815" class="divider" />
  <text x="60" y="835" class="method">+ displayCatalog(): void</text>
  <text x="60" y="855" class="method">+ displayCart(): void</text>
  <text x="60" y="875" class="method">+ processCheckout(): void</text>
  <text x="60" y="895" class="method">+ showLoginScreen(): void</text>
  <text x="60" y="915" class="method">+ showRegistrationScreen(): void</text>
  <text x="60" y="935" class="method">+ showMessage(message: String): void</text>

  <!-- PurchaseThread Class -->
  <rect x="350" y="700" width="220" height="140" class="class-box" />
  <text x="460" y="725" class="class-name">PurchaseThread</text>
  <line x1="350" y1="745" x2="570" y2="745" class="divider" />
  <text x="360" y="765" class="attribute">- bookToPurchase: Book</text>
  <text x="360" y="785" class="attribute">- quantity: int</text>
  <text x="360" y="805" class="attribute">- inventoryManager: InventoryManager</text>
  <line x1="350" y1="815" x2="570" y2="815" class="divider" />
  <text x="360" y="835" class="method">+ run(): void</text>

  <!-- InsufficientStockException Class -->
  <rect x="650" y="700" width="220" height="100" class="class-box" />
  <text x="760" y="725" class="class-name">InsufficientStockException</text>
  <line x1="650" y1="745" x2="870" y2="745" class="divider" />
  <!-- No specific attributes/methods beyond standard exception implied -->

  <!-- Relationships -->

  <!-- User to Cart (Association 1-to-1) -->
  <line x1="270" y1="175" x2="350" y2="150" class="relationship-line" marker-end="url(#arrowhead)" />
  <text x="280" y="185" class="cardinality">1</text>
  <text x="340" y="160" class="cardinality">1</text>

  <!-- Cart to Book (Aggregation 0..*) -->
  <line x1="570" y1="150" x2="650" y2="190" class="relationship-line" marker-start="url(#aggregation-diamond)" marker-end="url(#arrowhead)" />
  <text x="580" y="160" class="cardinality"></text>
  <text x="640" y="200" class="cardinality">0..*</text>
  <text x="610" y="175" class="relationship-label">contains</text>

  <!-- User to Order (Association 0..*) -->
  <line x1="160" y1="300" x2="160" y2="400" class="relationship-line" marker-end="url(#arrowhead)" />
  <text x="170" y="310" class="cardinality">1</text>
  <text x="170" y="390" class="cardinality">0..*</text>

  <!-- Order to Book (Aggregation 0..*) -->
  <line x1="270" y1="500" x2="650" y2="250" class="relationship-line" marker-start="url(#aggregation-diamond)" marker-end="url(#arrowhead)" />
  <text x="280" y="510" class="cardinality"></text>
  <text x="640" y="260" class="cardinality">0..*</text>
  <text x="460" y="375" class="relationship-label">contains</text>

  <!-- InventoryManager to Book (Association 0..*) -->
  <line x1="570" y1="480" x2="870" y2="250" class="relationship-line" marker-end="url(#arrowhead)" />
  <text x="580" y="490" class="cardinality">1</text>
  <text x="860" y="260" class="cardinality">0..*</text>
  <text x="720" y="375" class="relationship-label">manages</text>

  <!-- BookstoreGUI Dependencies -->
  <line x1="160" y1="700" x2="160" y2="300" class="relationship-line" stroke-dasharray="5,5" marker-end="url(#open-arrowhead)" />
  <text x="170" y="500" class="relationship-label">uses</text>

  <line x1="270" y1="825" x2="350" y2="775" class="relationship-line" stroke-dasharray="5,5" marker-end="url(#open-arrowhead)" />
  <text x="310" y="800" class="relationship-label">uses</text>

  <line x1="270" y1="825" x2="350" y2="480" class="relationship-line" stroke-dasharray="5,5" marker-end="url(#open-arrowhead)" />
  <text x="310" y="650" class="relationship-label">uses</text>

  <!-- PurchaseThread to InventoryManager (Dependency) -->
  <line x1="460" y1="700" x2="460" y2="560" class="relationship-line" stroke-dasharray="5,5" marker-end="url(#open-arrowhead)" />
  <text x="470" y="630" class="relationship-label">uses</text>

  <!-- InventoryManager to InsufficientStockException (Throws) -->
  <line x1="570" y1="480" x2="650" y2="750" class="relationship-line" stroke-dasharray="5,5" marker-end="url(#arrowhead)" />
  <text x="610" y="620" class="relationship-label">throws</text>

</svg>
